# xmcd
#
# Track frame offsets:
#	150
#	13175
#	24398
#	35033
#	48873
#	61565
#	72180
#	83665
#	94865
#	106210
#	118405
#	132970
#	144903
#	155793
#	169483
#	182548
#	195618
#
# Disc length: 2808 seconds
# Revision: 2
# Processed by: cddbd v1.5.2PL0 Copyright (c) Steve Scherf et al.
# Submitted via: dBpowerAMP V12.0
#
DISCID=e50af611
DTITLE=Elmore James - The Best Blues
DYEAR=1990
DGENRE=Blues
TTITLE0=Dust My Broom
TTITLE1=Look on Yonder Wall
TTITLE2=Done Somebody Wrong
TTITLE3=It Hurts Me Too
TTITLE4=I'm Worried
TTITLE5=One Way Out
TTITLE6=Fine Little Mama
TTITLE7=Rollin' and Tumblin
TTITLE8=Shake Your Moneymaker
TTITLE9=The Sky Is Crying
TTITLE10=Stranger Blues
TTITLE11=I Can't Stop Lovin' You
TTITLE12=Coming Home
TTITLE13=My Bleeding Heart
TTITLE14=Standing at the Crossroads
TTITLE15=Make My Dreams Come True
TTITLE16=Everyday (I Have the Blues)
EXTD=
EXTT0=
EXTT1=
EXTT2=
EXTT3=
EXTT4=
EXTT5=
EXTT6=
EXTT7=
EXTT8=
EXTT9=
EXTT10=
EXTT11=
EXTT12=
EXTT13=
EXTT14=
EXTT15=
EXTT16=
PLAYORDER=
